<svg
	xmlns="http://www.w3.org/2000/svg"
	width="18"
	height="12"
	viewBox="0 0 18 12"
	fill="none"
>
	<path
		d="M5.29999 11.3L0.699988 6.70002C0.599988 6.60002 0.529321 6.49169 0.487988 6.37502C0.445988 6.25836 0.424988 6.13336 0.424988 6.00002C0.424988 5.86669 0.445988 5.74169 0.487988 5.62502C0.529321 5.50836 0.599988 5.40002 0.699988 5.30002L5.32499 0.675025C5.50832 0.491691 5.73332 0.400024 5.99999 0.400024C6.26665 0.400024 6.49999 0.500024 6.69999 0.700024C6.88332 0.883357 6.97499 1.11669 6.97499 1.40002C6.97499 1.68336 6.88332 1.91669 6.69999 2.10002L3.79999 5.00002H17C17.2833 5.00002 17.5207 5.09569 17.712 5.28702C17.904 5.47902 18 5.71669 18 6.00002C18 6.28336 17.904 6.52069 17.712 6.71202C17.5207 6.90402 17.2833 7.00002 17 7.00002H3.79999L6.72499 9.92502C6.90832 10.1084 6.99999 10.3334 6.99999 10.6C6.99999 10.8667 6.89999 11.1 6.69999 11.3C6.51665 11.4834 6.28332 11.575 5.99999 11.575C5.71665 11.575 5.48332 11.4834 5.29999 11.3Z"
		fill="#999999"
	/>
</svg>
