<svg width="107" height="107" viewBox="0 0 107 107" fill="none" xmlns="http://www.w3.org/2000/svg">
<g clip-path="url(#clip0_101_931)">
<rect width="107" height="107" rx="53.5" fill="black"/>
<ellipse cx="23.9376" cy="33.4853" rx="33.9688" ry="30.1416" fill="white"/>
<path d="M27.4116 72.0603C20.5633 68.415 17.4358 64.3907 14.0757 56.6711H31.608C28.5678 61.9147 28.1566 65.3794 29.7221 69.8122C30.244 71.2901 28.7951 72.7967 27.4116 72.0603Z" fill="white"/>
<path d="M71.2191 90.8684C56.0118 92.6287 38.3206 87.9505 36.8517 69.7361C35.6076 54.3085 51.0076 40.125 69.6977 40.125C85.1253 40.125 100.604 49.2827 104.809 65.9791C109.013 82.6754 126.432 148.449 126.432 148.449L83.4864 164.044C81.1061 142.176 75.4839 98.587 71.2191 90.8684Z" fill="white"/>
<path d="M71.2191 90.8684L73.4141 89.6556L72.6009 88.1839L70.9307 88.3773L71.2191 90.8684ZM36.8517 69.7361L34.352 69.9377L36.8517 69.7361ZM126.432 148.449L127.287 150.807L129.443 150.024L128.856 147.807L126.432 148.449ZM83.4864 164.044L80.9933 164.315L81.3391 167.491L84.3424 166.401L83.4864 164.044ZM39.3514 69.5345C38.2586 55.9836 52.0182 42.6328 69.6977 42.6328L69.6977 37.6172C49.9971 37.6172 32.9565 52.6333 34.352 69.9377L39.3514 69.5345ZM126.432 148.449C128.856 147.807 128.856 147.807 128.856 147.807C128.855 147.806 128.855 147.805 128.855 147.804C128.854 147.802 128.854 147.799 128.853 147.795C128.85 147.787 128.847 147.775 128.843 147.76C128.835 147.728 128.822 147.681 128.806 147.618C128.773 147.493 128.723 147.308 128.659 147.065C128.531 146.579 128.341 145.864 128.099 144.949C127.615 143.118 126.918 140.484 126.069 137.27C124.37 130.844 122.062 122.101 119.622 112.837C114.74 94.3003 109.339 73.6985 107.241 65.3667L102.377 66.5914C104.483 74.956 109.893 95.5893 114.772 114.114C117.212 123.38 119.521 132.124 121.22 138.552C122.069 141.766 122.766 144.401 123.25 146.232C123.493 147.148 123.682 147.862 123.811 148.348C123.875 148.591 123.924 148.777 123.957 148.902C123.974 148.965 123.986 149.012 123.995 149.044C123.999 149.059 124.002 149.071 124.004 149.079C124.005 149.083 124.006 149.086 124.006 149.088C124.007 149.089 124.007 149.09 124.007 149.091C124.007 149.091 124.007 149.091 126.432 148.449ZM84.3424 166.401L127.287 150.807L125.576 146.092L82.6305 161.687L84.3424 166.401ZM69.024 92.0813C69.4136 92.7863 69.9057 94.0842 70.4626 96.0239C71.0065 97.9183 71.5713 100.276 72.1466 103.001C73.2967 108.449 74.4656 115.252 75.5806 122.53C77.8096 137.079 79.8058 153.405 80.9933 164.315L85.9795 163.772C84.7868 152.814 82.7816 136.412 80.5383 121.77C79.4171 114.452 78.232 107.545 77.0541 101.965C76.4654 99.1767 75.8726 96.692 75.2835 94.6398C74.7073 92.6329 74.0908 90.8803 73.4141 89.6556L69.024 92.0813ZM70.9307 88.3773C63.626 89.2228 55.9314 88.488 49.9975 85.546C44.2084 82.6758 40.009 77.6881 39.3514 69.5345L34.352 69.9377C35.1634 79.9986 40.544 86.4572 47.7696 90.0396C54.8503 93.5502 63.6049 94.2744 71.5074 93.3596L70.9307 88.3773ZM69.6977 42.6328C84.225 42.6328 98.5096 51.2338 102.377 66.5914L107.241 65.3667C102.699 47.3315 86.0256 37.6172 69.6977 37.6172L69.6977 42.6328Z" fill="black"/>
<path d="M70.693 90.8868C72.2689 90.721 80.25 88.6094 81.9219 86.9375" stroke="black" stroke-width="5.01562" stroke-linecap="round"/>
<path d="M69.8019 55.3095C69.8019 56.7832 68.6072 57.9778 67.1335 57.9778C65.6599 57.9778 64.4652 56.7832 64.4652 55.3095C64.4652 53.8358 65.6599 52.6412 67.1335 52.6412C68.6072 52.6412 69.8019 53.8358 69.8019 55.3095Z" fill="black"/>
<path d="M54.1254 55.3095C54.1254 56.7832 52.9308 57.9778 51.4571 57.9778C49.9834 57.9778 48.7887 56.7832 48.7887 55.3095C48.7887 53.8358 49.9834 52.6412 51.4571 52.6412C52.9308 52.6412 54.1254 53.8358 54.1254 55.3095Z" fill="black"/>
<path d="M11 23.6918L15.9401 21.677C16.9769 21.2541 18.1565 21.3783 19.0826 22.0078L20.9139 23.2527C21.923 23.9386 23.2255 24.0204 24.3124 23.4663L27.2299 21.9789C28.3991 21.3828 29.8088 21.5258 30.8345 22.3444L32.0496 23.3143C33.2817 24.2976 35.0331 24.2869 36.253 23.2887L37.3101 22.4237C38.3622 21.5628 39.8308 21.4246 41.025 22.074L44 23.6918" stroke="#AFAFAF" stroke-width="3.34375" stroke-linecap="round"/>
<path d="M3 42.0643L8.14975 40.4939C9.16786 40.1834 10.273 40.3762 11.1258 41.0131L12.151 41.7787C13.1552 42.5285 14.4944 42.6539 15.6203 42.1035L18.58 40.6566C19.4346 40.2388 20.4268 40.2048 21.308 40.5631L25 42.0643" stroke="#AFAFAF" stroke-width="3.34375" stroke-linecap="round"/>
<path d="M33 43L36.7582 41.4967C37.5553 41.1779 38.4447 41.1779 39.2418 41.4967L43 43" stroke="#AFAFAF" stroke-width="3.34375" stroke-linecap="round"/>
</g>
<rect x="2.5" y="2.5" width="102" height="102" rx="51" stroke="black" stroke-width="5"/>
<defs>
<clipPath id="clip0_101_931">
<rect width="107" height="107" rx="53.5" fill="white"/>
</clipPath>
</defs>
</svg>
