<svg
	width="18.5"
	height="18.5"
	viewBox="0 0 20 20"
	fill="none"
	xmlns="http://www.w3.org/2000/svg"
>
	<path
		d="M18 11.3306H11.3333V17.9973C11.3333 18.3509 11.1928 18.69 10.9428 18.9401C10.6927 19.1901 10.3536 19.3306 9.99996 19.3306C9.64634 19.3306 9.3072 19.1901 9.05715 18.9401C8.8071 18.69 8.66663 18.3509 8.66663 17.9973V11.3306H1.99996C1.64634 11.3306 1.3072 11.1901 1.05715 10.9401C0.807102 10.69 0.666626 10.3509 0.666626 9.99727C0.666626 9.64365 0.807102 9.30451 1.05715 9.05447C1.3072 8.80442 1.64634 8.66394 1.99996 8.66394H8.66663V1.99727C8.66663 1.64365 8.8071 1.30451 9.05715 1.05446C9.3072 0.804416 9.64634 0.66394 9.99996 0.66394C10.3536 0.66394 10.6927 0.804416 10.9428 1.05446C11.1928 1.30451 11.3333 1.64365 11.3333 1.99727V8.66394H18C18.3536 8.66394 18.6927 8.80442 18.9428 9.05447C19.1928 9.30451 19.3333 9.64365 19.3333 9.99727C19.3333 10.3509 19.1928 10.69 18.9428 10.9401C18.6927 11.1901 18.3536 11.3306 18 11.3306Z"
		fill="black"
	/>
</svg>
